#!OML:ASF E:\Mandelcareful walks\Project 1\Capture day 1\Session 1\Subject1.ASF
:FULLY-SPECIFIED
:DEGREES
948
root -27.5771 16.4766 -3.93041 1.87409 115.665 -4.04016
lowerback -3.25844 2.02778 -2.68554
upperback 1.05866 2.81599 0.278267
thorax 2.7716 1.35464 1.9445
lowerneck -8.3684 16.9053 13.6102
upperneck 19.8536 25.141 -12.1132
head 11.0606 11.8321 -2.67246
rclavicle 5.36967e-014 4.77083e-015
rhumerus -37.1663 -2.17489 -82.0321
rradius 36.6183
rwrist -14.5492
rhand -9.04345 -25.917
rfingers 7.12502
rthumb 16.9046 -55.2013
lclavicle 5.36967e-014 4.77083e-015
lhumerus -29.8482 1.82448 84.4756
lradius 28.3953
lwrist 10.9661
lhand -20.1002 -18.6378
lfingers 7.12502
lthumb 6.24313 11.2502
rfemur -8.58033 -0.0135183 14.2436
rtibia 25.0118
rfoot -27.9157 -26.5389
rtoes 8.75363
lfemur -14.8363 -6.76868 -15.3071
ltibia 30.0746
lfoot -22.6814 22.5036
ltoes -1.72325
949
root -27.5902 16.4766 -3.95647 1.28083 115.72 -4.90499
lowerback -3.47083 1.93706 -3.06302
upperback 0.991123 2.72023 0.191928
thorax 2.81369 1.30102 2.06876
lowerneck -8.23421 16.8843 13.5232
upperneck 19.8153 25.148 -12.1388
head 11.0146 11.8393 -2.68272
rclavicle 8.45829e-014 -1.68967e-014
rhumerus -37.1843 -2.26629 -81.7669
rradius 36.3882
rwrist -14.3326
rhand -9.11206 -26.6465
rfingers 7.12502
rthumb 16.8386 -55.9364
lclavicle 8.45829e-014 -1.68967e-014
lhumerus -30.032 1.95856 84.5032
lradius 28.4675
lwrist 10.8935
lhand -20.3763 -18.5889
lfingers 7.12502
lthumb 5.97654 11.3068
rfemur -8.83945 -0.275493 13.6851
rtibia 25.0213
rfoot -27.5522 -26.567
rtoes 8.2064
lfemur -15.0552 -6.69436 -15.8153
ltibia 30.0633
lfoot -22.6469 22.4454
ltoes -1.89643
950
root -27.606 16.4727 -3.97798 1.27835 115.752 -4.79601
lowerback -3.34006 1.88553 -3.04683
upperback 0.991698 2.64482 0.241378
thorax 2.74337 1.26457 2.10138
lowerneck -8.25232 16.8855 13.4006
upperneck 20.1003 25.1976 -11.9819
head 11.0888 11.8627 -2.59953
rclavicle 5.60573e-014 -3.18055e-015
rhumerus -37.1858 -2.51578 -81.4415
rradius 36.082
rwrist -13.9758
rhand -9.17494 -26.3022
rfingers 7.12502
rthumb 16.778 -55.5972
lclavicle 5.60573e-014 -3.18055e-015
lhumerus -30.1905 1.98967 84.5874
lradius 28.5527
lwrist 10.9391
lhand -20.6179 -18.2185
lfingers 7.12502
lthumb 5.74329 11.6837
rfemur -8.77123 -0.0296365 13.6553
rtibia 25.0548
rfoot -27.557 -26.8919
rtoes 7.93362
lfemur -14.9756 -6.51102 -15.8696
ltibia 30.0539
lfoot -22.599 22.2408
ltoes -1.54687
951
root -27.6309 16.4777 -4.00047 1.30117 115.712 -4.912
lowerback -3.35118 1.88335 -2.99847
upperback 0.971856 2.64178 0.17304
thorax 2.73463 1.26488 2.00392
lowerneck -8.51978 16.8712 13.415
upperneck 20.4744 25.2093 -11.9071
head 11.2699 11.8502 -2.54066
rclavicle -4.96962e-017 -5.96354e-015
rhumerus -37.0712 -2.88561 -81.2342
rradius 35.6952
rwrist -13.8962
rhand -8.77669 -25.6327
rfingers 7.12502
rthumb 17.1614 -54.8948
lclavicle -4.96962e-017 -5.96354e-015
lhumerus -30.1848 1.62992 84.721
lradius 28.6449
lwrist 11.2838
lhand -21.27 -17.5432
lfingers 7.12502
lthumb 5.11364 12.3751
rfemur -8.94721 -0.100333 13.4846
rtibia 25.0009
rfoot -27.3621 -26.9023
rtoes 7.42317
lfemur -15.1924 -6.54794 -16.0265
ltibia 30.1115
lfoot -22.6137 22.3342
ltoes -1.41266
952
root -27.6508 16.4779 -4.0182 1.23419 115.599 -4.96334
lowerback -3.2899 1.90478 -2.95472
upperback 1.02552 2.67054 0.0731323
thorax 2.76059 1.28 1.87714
lowerneck -8.67274 16.8754 13.589
upperneck 20.615 25.2519 -12.0631
head 11.4067 11.8523 -2.58431
rclavicle 3.34704e-014 -4.17448e-015
rhumerus -36.8934 -3.3104 -81.0938
rradius 35.3033
rwrist -13.7497
rhand -8.28924 -25.7666
rfingers 7.12502
rthumb 17.6305 -54.9872
lclavicle 3.34704e-014 -4.17448e-015
lhumerus -30.0894 1.59711 84.6543
lradius 28.6316
lwrist 11.1697
lhand -21.5242 -17.2063
lfingers 7.12502
lthumb 4.8682 12.7177
rfemur -8.95757 -0.144088 13.3664
rtibia 24.8933
rfoot -27.0285 -26.9341
rtoes 6.88067
lfemur -15.2552 -6.34648 -16.146
ltibia 30.2183
lfoot -22.5943 22.3038
ltoes -1.49365
953
root -27.6636 16.4757 -4.0381 1.03368 115.443 -5.06992
lowerback -3.25114 1.90929 -2.92719
upperback 1.08594 2.67768 0.000352893
thorax 2.80542 1.28351 1.78729
lowerneck -8.59759 16.8634 13.7589
upperneck 20.7525 25.3624 -12.354
head 11.5315 11.8916 -2.67827
rclavicle 4.37326e-014 -1.39149e-015
rhumerus -36.8146 -3.54523 -80.9445
rradius 34.9962
rwrist -13.5212
rhand -8.30794 -26.6348
rfingers 7.12502
rthumb 17.6125 -55.8571
lclavicle 4.37326e-014 -1.39149e-015
lhumerus -30.0579 1.95819 84.5123
lradius 28.5423
lwrist 10.7177
lhand -21.2749 -17.2599
lfingers 7.12502
lthumb 5.10893 12.6586
rfemur -8.86062 -0.214106 13.2093
rtibia 24.7723
rfoot -26.6733 -26.9076
rtoes 6.10137
lfemur -15.185 -6.01664 -16.2995
ltibia 30.3218
lfoot -22.7097 22.0733
ltoes -0.990843
954
root -27.6744 16.4745 -4.05846 0.826745 115.24 -5.23561
lowerback -3.20974 1.9487 -2.91493
upperback 1.08256 2.72943 -0.0367909
thorax 2.77835 1.31044 1.74317
lowerneck -8.70305 16.7968 13.6955
upperneck 21.3514 25.4568 -12.382
head 11.7891 11.9144 -2.63672
rclavicle 3.88624e-014 -1.23246e-014
rhumerus -36.9135 -3.82352 -80.6847
rradius 34.7935
rwrist -13.1183
rhand -9.06782 -26.6808
rfingers 7.12502
rthumb 16.8812 -55.9671
lclavicle 3.88624e-014 -1.23246e-014
lhumerus -30.1082 2.09152 84.576
lradius 28.5089
lwrist 10.5772
lhand -21.3222 -17.2552
lfingers 7.12502
lthumb 5.06329 12.6643
rfemur -8.79176 -0.0187919 13.0511
rtibia 24.6433
rfoot -26.4591 -26.9993
rtoes 5.74984
lfemur -15.1229 -6.11156 -16.4584
ltibia 30.436
lfoot -23.1716 22.0746
ltoes 0.0484673
955
root -27.6857 16.4742 -4.07646 0.762412 115.096 -5.25852
lowerback -3.15309 1.99447 -2.89163
upperback 1.05833 2.7874 -0.0490333
thorax 2.72024 1.34109 1.71755
lowerneck -8.92549 16.6711 13.4954
upperneck 22.2496 25.4894 -12.1909
head 12.1233 11.9077 -2.50352
rclavicle 8.52289e-014 -4.17448e-015
rhumerus -37.002 -4.18689 -80.4438
rradius 34.5754
rwrist -12.8445
rhand -9.80283 -26.6189
rfingers 7.12502
rthumb 16.1735 -55.9642
lclavicle 8.52289e-014 -4.17448e-015
lhumerus -30.2514 1.77286 84.788
lradius 28.6563
lwrist 10.8415
lhand -21.6676 -17.0727
lfingers 7.12502
lthumb 4.7297 12.8545
rfemur -8.72155 0.434613 12.9876
rtibia 24.5399
rfoot -26.4482 -27.2524
rtoes 6.39232
lfemur -15.0645 -6.53313 -16.5297
ltibia 30.5207
lfoot -23.7572 22.2905
ltoes 1.40697
956
root -27.6993 16.4745 -4.09283 0.734422 115.051 -5.20917
lowerback -3.10435 1.98741 -2.84865
upperback 1.05499 2.77514 -0.0712892
thorax 2.69305 1.33646 1.66803
lowerneck -9.09325 16.5185 13.329
upperneck 23.281 25.5407 -12.0097
head 12.5152 11.9129 -2.3746
rclavicle 2.71093e-014 -1.39149e-014
rhumerus -37.0477 -4.34101 -80.3905
rradius 34.3563
rwrist -13.1622
rhand -9.75818 -27.3225
rfingers 7.12502
rthumb 16.2165 -56.6643
lclavicle 2.71093e-014 -1.39149e-014
lhumerus -30.3988 1.44558 84.9352
lradius 28.8509
lwrist 11.179
lhand -22.0108 -16.7434
lfingers 7.12502
lthumb 4.39835 13.1909
rfemur -8.60584 0.894092 12.9582
rtibia 24.457
rfoot -26.6504 -27.4952
rtoes 7.16952
lfemur -15.0352 -6.4805 -16.5729
ltibia 30.5775
lfoot -23.766 22.1967
ltoes 1.98514
957
root -27.7169 16.4745 -4.11133 0.570149 114.943 -5.28291
lowerback -3.0307 2.02337 -2.75183
upperback 1.05422 2.81884 -0.142369
thorax 2.65678 1.36126 1.54013
lowerneck -9.39696 16.3051 13.1867
upperneck 24.6539 25.6096 -11.8428
head 13.0911 11.9134 -2.22809
rclavicle -1.53064e-014 1.03368e-014
rhumerus -37.1175 -4.61398 -80.2415
rradius 34.088
rwrist -13.3146
rhand -9.43052 -27.2232
rfingers 7.12502
rthumb 16.532 -56.539
lclavicle -1.53064e-014 1.03368e-014
lhumerus -30.4313 1.41244 84.9756
lradius 28.9488
lwrist 11.2805
lhand -22.1684 -16.322
lfingers 7.12502
lthumb 4.24615 13.6154
rfemur -8.49736 1.05985 12.8159
rtibia 24.3773
rfoot -26.8135 -27.3891
rtoes 7.52646
lfemur -14.9944 -6.07615 -16.7035
ltibia 30.6167
lfoot -23.4703 22.0161
ltoes 1.5434
958
root -27.731 16.475 -4.12426 0.433926 114.893 -5.37099
lowerback -3.03112 2.05832 -2.74752
upperback 1.0612 2.86704 -0.191426
thorax 2.66475 1.38573 1.4899
lowerneck -9.59539 15.9685 13.129
upperneck 25.9892 25.6282 -11.9696
head 13.7075 11.884 -2.21547
rclavicle 7.19104e-014 -1.39149e-014
rhumerus -37.0524 -4.95198 -80.0151
rradius 33.6703
rwrist -13.1781
rhand -9.34859 -26.8583
rfingers 7.12502
rthumb 16.6109 -56.1675
lclavicle 7.19104e-014 -1.39149e-014
lhumerus -30.4412 1.29773 85.0221
lradius 29.132
lwrist 11.2689
lhand -22.1257 -16.0168
lfingers 7.12502
lthumb 4.28738 13.9197
rfemur -8.41713 1.31523 12.7113
rtibia 24.3167
rfoot -27.0688 -27.436
rtoes 7.74404
lfemur -14.9921 -5.78998 -16.7941
ltibia 30.6773
lfoot -23.4356 21.7538
ltoes 1.75346
959
root -27.7477 16.4806 -4.13533 0.414117 114.893 -5.6186
lowerback -3.19896 2.0589 -2.80268
upperback 0.973932 2.87695 -0.287034
thorax 2.67105 1.39134 1.42796
lowerneck -9.95188 15.6119 12.9724
upperneck 27.7244 25.6777 -11.8327
head 14.497 11.869 -2.0703
rclavicle -8.17502e-015 1.15295e-014
rhumerus -36.9488 -5.26261 -79.885
rradius 33.2427
rwrist -12.9473
rhand -9.30009 -26.671
rfingers 7.12502
rthumb 16.6576 -55.9762
lclavicle -8.17502e-015 1.15295e-014
lhumerus -30.5091 1.21184 85.0004
lradius 29.3616
lwrist 11.1159
lhand -21.9394 -15.9318
lfingers 7.12502
lthumb 4.46728 14.0011
rfemur -8.67197 1.35935 12.5224
rtibia 24.2955
rfoot -27.0589 -27.4836
rtoes 7.84114
lfemur -15.2926 -5.54273 -16.9356
ltibia 30.7219
lfoot -23.4132 21.4709
ltoes 2.30525
960
root -27.7668 16.4702 -4.15151 0.155444 114.778 -5.68849
lowerback -2.97038 2.10888 -2.69414
upperback 0.972575 2.93405 -0.368657
thorax 2.54818 1.42451 1.27676
lowerneck -9.90579 15.2518 12.7956
upperneck 29.0699 25.7646 -11.8625
head 15.0929 11.8929 -2.01879
rclavicle -5.8393e-016 1.59028e-015
rhumerus -37.0147 -5.60356 -79.7213
rradius 33.0122
rwrist -12.6049
rhand -9.01195 -26.736
rfingers 7.12502
rthumb 16.9349 -56.0177
lclavicle -5.8393e-016 1.59028e-015
lhumerus -30.6152 1.36439 84.9431
lradius 29.5774
lwrist 10.9181
lhand -21.8126 -15.8935
lfingers 7.12502
lthumb 4.58974 14.0367
rfemur -8.54661 1.29002 12.3786
rtibia 24.3159
rfoot -26.9393 -27.2731
rtoes 8.04691
lfemur -15.1447 -5.48036 -17.0784
ltibia 30.7617
lfoot -23.3314 21.5606
ltoes 1.9226
961
root -27.7748 16.4642 -4.16223 -0.0650803 114.832 -5.90957
lowerback -3.04987 2.06981 -2.89948
upperback 0.978548 2.89376 -0.376788
thorax 2.59125 1.40056 1.38448
lowerneck -9.86744 14.8897 12.5938
upperneck 30.4129 25.9505 -12.0147
head 15.7532 11.9465 -1.9858
rclavicle 5.5287e-014 5.1684e-015
rhumerus -37.0967 -5.65398 -79.5754
rradius 32.953
rwrist -12.4839
rhand -8.9052 -27.6658
rfingers 7.12502
rthumb 17.0377 -56.9387
lclavicle 5.5287e-014 5.1684e-015
lhumerus -30.6718 1.45367 84.9938
lradius 29.8979
lwrist 10.9757
lhand -21.9292 -15.7622
lfingers 7.12502
lthumb 4.47711 14.1704
rfemur -8.47583 1.59211 12.2426
rtibia 24.3453
rfoot -27.2675 -27.4064
rtoes 8.43049
lfemur -15.2099 -5.13808 -17.2445
ltibia 30.7876
lfoot -22.7931 21.3953
ltoes 1.01559
962
root -27.7846 16.4632 -4.17403 -0.477029 114.814 -6.35192
lowerback -3.14816 2.09108 -3.15168
upperback 1.05404 2.9425 -0.48095
thorax 2.71554 1.41935 1.42661
lowerneck -9.98666 14.5189 12.4955
upperneck 31.7218 26.093 -12.1724
head 16.4762 11.9761 -1.96665
rclavicle 4.11236e-015 1.88845e-015
rhumerus -37.0655 -5.74719 -79.5779
rradius 32.8952
rwrist -12.5249
rhand -9.2449 -28.0649
rfingers 7.12502
rthumb 16.7107 -57.3656
lclavicle 4.11236e-015 1.88845e-015
lhumerus -30.5722 1.23073 85.0033
lradius 30.3025
lwrist 11.1704
lhand -22.1723 -15.5694
lfingers 7.12502
lthumb 4.24243 14.3681
rfemur -8.46442 1.69137 11.9788
rtibia 24.3794
rfoot -27.3355 -27.3643
rtoes 8.33005
lfemur -15.2826 -4.39495 -17.5286
ltibia 30.8122
lfoot -22.0721 21.029
ltoes 0.0579279
